<?xml version="1.0" encoding="iso-8859-1"?>
<!-- Generator: Adobe Illustrator 19.0.0, SVG Export Plug-In . SVG Version: 6.00 Build 0)  -->
<svg version="1.1" id="Capa_1" xmlns="http://www.w3.org/2000/svg" xmlns:xlink="http://www.w3.org/1999/xlink" x="0px" y="0px"
	 viewBox="0 0 512 512" style="enable-background:new 0 0 512 512;" xml:space="preserve">
<g>
	<g>
		<g>
			<path d="M149.333,213.313c5.458,0,10.917-2.063,15.083-6.229c8.313-8.313,8.313-21.854,0-30.167
				c-8.333-8.333-21.833-8.333-30.167,0c-8.313,8.313-8.313,21.854,0,30.167C138.417,211.25,143.875,213.313,149.333,213.313z"/>
			<path d="M336.917,134.25c-8.313,8.313-8.313,21.854,0,30.167c4.167,4.167,9.625,6.229,15.083,6.229
				c5.458,0,10.917-2.063,15.083-6.229c8.313-8.313,8.313-21.854,0-30.167C358.75,125.917,345.25,125.917,336.917,134.25z"/>
			<path d="M256,0C114.833,0,0,114.833,0,256s114.833,256,256,256s256-114.833,256-256S397.167,0,256,0z M170.667,106.667
				c35.292,0,64,28.708,64,64c0,35.292-28.708,64-64,64c-35.292,0-64-28.708-64-64C106.667,135.375,135.375,106.667,170.667,106.667
				z M405.042,333.125c-6.681,28.163-22.091,52.711-42.607,72.063c-29.764-22.941-71.119-28.031-106.122-10.25
				c-35.121-17.88-76.715-12.624-106.458,10.568c-20.686-19.397-36.212-44.06-42.896-72.38c-0.75-3.188-0.021-6.521,2.021-9.083
				C111,321.5,114.083,320,117.333,320h277.333c3.271,0,6.354,1.5,8.375,4.063C405.063,326.604,405.792,329.958,405.042,333.125z
				 M341.333,234.667c-35.292,0-64-28.708-64-64c0-35.292,28.708-64,64-64c35.292,0,64,28.708,64,64
				C405.333,205.958,376.625,234.667,341.333,234.667z"/>
		</g>
	</g>
</g>
<g>
</g>
<g>
</g>
<g>
</g>
<g>
</g>
<g>
</g>
<g>
</g>
<g>
</g>
<g>
</g>
<g>
</g>
<g>
</g>
<g>
</g>
<g>
</g>
<g>
</g>
<g>
</g>
<g>
</g>
</svg>
