<svg id="Capa_1" enable-background="new 0 0 511.999 511.999" height="512" viewBox="0 0 511.999 511.999" width="512" xmlns="http://www.w3.org/2000/svg"><g><path d="m220.24 297.669c47.763 0 91.651-28 111.807-71.333.934-2.005.934-4.321 0-6.326-20.156-43.333-64.043-71.332-111.807-71.332s-91.651 27.999-111.808 71.332c-.933 2.005-.933 4.321 0 6.326 20.157 43.333 64.044 71.333 111.808 71.333zm54.193-98.511c0 30.259-24.622 54.877-54.887 54.877s-54.887-24.618-54.887-54.877c0-7.999 1.689-15.671 4.988-22.851 10.021-5.311 20.889-9.069 32.227-11.038-12.206 6.392-20.559 19.178-20.559 33.886 0 21.081 17.151 38.232 38.232 38.232s38.232-17.151 38.232-38.232c0-14.959-8.641-27.931-21.189-34.208 11.38 1.754 22.311 5.312 32.422 10.43 3.54 7.365 5.421 15.531 5.421 23.781zm-31.654-.004c0 12.81-10.422 23.232-23.232 23.232s-23.232-10.422-23.232-23.232 10.422-23.232 23.232-23.232 23.232 10.422 23.232 23.232zm-92.419-9.806c-.461 3.246-.701 6.526-.701 9.81 0 38.53 31.351 69.877 69.887 69.877 38.535 0 69.887-31.347 69.887-69.877 0-3.735-.305-7.457-.896-11.128 11.65 9.46 21.405 21.357 28.375 35.143-18.33 36.26-55.892 59.496-96.672 59.496s-78.342-23.236-96.672-59.496c6.651-13.155 15.843-24.585 26.792-33.825z"/><path d="m105.057 249.731c-.661-4.089-4.511-6.865-8.6-6.208-4.089.661-6.869 4.511-6.208 8.6l5.75 35.604c-44.812-.886-80.999-37.588-80.999-82.608 0-21.885 8.461-42.504 23.826-58.059 2.911-2.947 2.881-7.696-.065-10.606-2.947-2.912-7.695-2.881-10.606.065-18.157 18.381-28.155 42.744-28.155 68.6 0 53.844 43.805 97.649 97.649 97.649h.778l31.934 197.735c.595 3.684 3.779 6.305 7.395 6.305.397 0 .8-.032 1.205-.097 4.089-.661 6.869-4.511 6.208-8.6z"/><path d="m483.95 451.758c-2.178-3.525-6.8-4.616-10.322-2.441-3.524 2.176-4.617 6.797-2.441 10.322l26.93 43.61c1.419 2.297 3.875 3.561 6.389 3.561 1.345 0 2.706-.361 3.934-1.12 3.524-2.176 4.617-6.797 2.441-10.322z"/><path d="m391.934 302.702c66.553-2.056 120.063-56.83 120.063-123.873 0-68.346-55.599-123.95-123.94-123.95-11.581 0-23.017 1.596-34.073 4.751-28.401-34.665-70.037-54.44-115.045-54.44-32.996 0-64.249 10.578-90.38 30.589-23.728 18.172-41.672 43.457-50.983 71.68-15.457.011-30.242 3.533-43.944 10.468-3.695 1.871-5.175 6.383-3.304 10.079s6.383 5.175 10.079 3.304c11.604-5.874 24.134-8.852 37.243-8.852 1.519 0 3.137.054 4.949.166 3.499.22 6.707-2.041 7.673-5.428 7.819-27.4 24.656-52.086 47.408-69.509 23.49-17.99 51.59-27.498 81.259-27.498 42.051 0 80.828 19.198 106.389 52.672 1.943 2.545 5.289 3.575 8.325 2.566 11.082-3.681 22.657-5.548 34.405-5.548 60.07 0 108.94 48.875 108.94 108.95 0 60.07-48.87 108.939-108.94 108.939h-5.343l-30.104-48.76c-2.176-3.525-6.796-4.617-10.322-2.442-3.524 2.176-4.617 6.797-2.441 10.322l115.619 187.269c1.418 2.297 3.874 3.561 6.389 3.561 1.345 0 2.705-.361 3.934-1.119 3.524-2.176 4.617-6.797 2.441-10.322z"/><path d="m336.001 351.296c-1.868-3.697-6.381-5.178-10.076-3.311-3.697 1.868-5.18 6.38-3.311 10.077l62.517 123.705c1.32 2.612 3.959 4.119 6.699 4.119 1.138 0 2.293-.26 3.377-.808 3.697-1.868 5.18-6.38 3.311-10.077z"/><path d="m297.544 363.508c-1.735-3.761-6.192-5.402-9.952-3.666-3.761 1.736-5.403 6.191-3.667 9.953l23.942 51.876c1.266 2.743 3.979 4.359 6.814 4.359 1.052 0 2.12-.223 3.138-.692 3.761-1.736 5.403-6.191 3.667-9.953z"/><path d="m210.151 371.228c-1.145-3.981-5.301-6.282-9.281-5.134-3.981 1.145-6.28 5.3-5.134 9.281l27.933 97.102c.946 3.289 3.945 5.429 7.204 5.429.686 0 1.384-.095 2.077-.294 3.981-1.145 6.28-5.3 5.134-9.281z"/></g></svg>