<svg id="Capa_1" enable-background="new 0 0 512 512" height="512" viewBox="0 0 512 512" width="512" xmlns="http://www.w3.org/2000/svg"><circle cx="151" cy="106" r="90"/><path d="m256 267.99c11.49-6.54 24.13-10.62 37.29-11.98-10.06-28.39-29.38-52.44-54.29-68.52-47.725 51.535-128.924 51.296-176.37-.41-37.63 23.99-62.63 66.09-62.63 113.92v120c0 8.28 6.72 15 15 15h118.92c-18.56-25.09-27.92-50.47-27.92-75.85 0-80.447 85.254-129.002 150-92.16z"/><circle cx="361" cy="106" r="90"/><path d="m449.37 187.08c-37.69 41.074-97.308 50.061-144.45 24.97 9.01 14.02 15.96 29.49 20.4 45.98 45.487 10.468 80.68 50.856 80.68 102.12 0 25.38-9.36 50.76-27.92 75.85h118.92c8.28 0 15-6.72 15-15v-120c0-47.83-25-89.93-62.63-113.92z"/><path d="m256 305.422c-44.249-44.309-120-9.753-120 54.73 0 30.583 19.436 62.66 57.769 95.339 27.084 23.089 53.836 38.005 54.961 38.629 4.522 2.506 10.017 2.506 14.54 0 1.125-.624 27.877-15.54 54.961-38.629 38.333-32.678 57.769-64.755 57.769-95.339 0-64.476-75.751-99.046-120-54.73z"/></svg>