<svg height="512" viewBox="0 0 64 64" width="512" xmlns="http://www.w3.org/2000/svg"><path d="m22.351 45.063a1 1 0 0 0 -1.288.586l-2.063 5.503-2.063-5.5a1 1 0 1 0 -1.874.7l3 8a1 1 0 0 0 1.874 0l3-8a1 1 0 0 0 -.586-1.289z"/><path d="m28 45a4 4 0 0 0 -4 4v2a4 4 0 0 0 8 0v-2a4 4 0 0 0 -4-4zm2 6a2 2 0 0 1 -4 0v-2a2 2 0 0 1 4 0z"/><path d="m40 45h-6a1 1 0 0 0 0 2h2v7a1 1 0 0 0 2 0v-7h2a1 1 0 0 0 0-2z"/><path d="m48 47a1 1 0 0 0 0-2h-4a1 1 0 0 0 -1 1v8a1 1 0 0 0 1 1h4a1 1 0 0 0 0-2h-3v-2h3a1 1 0 0 0 0-2h-3v-2z"/><path d="m57 32h-11v-11a5.006 5.006 0 0 0 -5-5h-2.54a5.969 5.969 0 0 0 1.54-4v-1a1 1 0 0 0 -2 0v1a4 4 0 0 1 -8 0v-4h9a1 1 0 0 0 1-1 5.006 5.006 0 0 0 -5-5h-10a1 1 0 0 0 -1 1 5.009 5.009 0 0 0 4 4.9v4.1a5.969 5.969 0 0 0 1.54 4h-8.3l-4.711-4.711a3 3 0 0 0 -4.242 4.242l4.805 4.8a1 1 0 0 0 1.414-1.414l-2.506-2.503 1.414-1.414 2.707 2.707a1 1 0 0 0 .707.293h10.172v1a2.987 2.987 0 0 0 .856 2.092l-.848 6.784a1 1 0 0 0 .285.831l2 2a1 1 0 0 0 1.414 0l2-2a1 1 0 0 0 .285-.831l-.848-6.784a2.987 2.987 0 0 0 .856-2.092v-1h4a3 3 0 0 1 3 3v11h-2v-9a1 1 0 0 0 -2 0v9h-11v-9a1 1 0 0 0 -2 0v9h-11v-1.586l2.13-2.13a2.967 2.967 0 0 0 3.406-.577l2.828-2.828a3 3 0 0 0 0-4.243 3.07 3.07 0 0 0 -4.242 0l-1.414 1.414-1.414 1.413a3 3 0 0 0 -.577 3.406l-2.423 2.423a1 1 0 0 0 -.294.708v2h-7a1 1 0 0 0 -1 1v6a1 1 0 0 0 1 1h3v21a1 1 0 0 0 2 0v-21h25a1 1 0 0 0 0-2h-29v-4h48v4h-14a1 1 0 0 0 0 2h10v21a1 1 0 0 0 2 0v-21h3a1 1 0 0 0 1-1v-6a1 1 0 0 0 -1-1zm-42.414-17-.883-.883a1 1 0 0 1 1.414-1.417l.883.883zm11.585-11h8.829a3.006 3.006 0 0 1 2.829 2h-8.829a3.006 3.006 0 0 1 -2.829-2zm7.829 24.586-.947-.947.708-5.663c.08.006.157.024.239.024s.159-.018.239-.024l.708 5.663zm1-9.586a1 1 0 0 1 -2 0v-1h2zm-16.293 7.293a1 1 0 0 1 0-1.415l.707-.706 1.415 1.414-.707.707a1 1 0 0 1 -1.415 0zm3.536-4.536a1 1 0 0 1 .707 1.707l-.708.708-1.414-1.414.708-.708a.993.993 0 0 1 .707-.293z"/><circle cx="31" cy="11" r="1"/><circle cx="35" cy="11" r="1"/></svg>