<?xml version="1.0" encoding="iso-8859-1"?>
<!-- Generator: Adobe Illustrator 18.0.0, SVG Export Plug-In . SVG Version: 6.00 Build 0)  -->
<!DOCTYPE svg PUBLIC "-//W3C//DTD SVG 1.1//EN" "http://www.w3.org/Graphics/SVG/1.1/DTD/svg11.dtd">
<svg version="1.1" id="Capa_1" xmlns="http://www.w3.org/2000/svg" xmlns:xlink="http://www.w3.org/1999/xlink" x="0px" y="0px"
	 viewBox="0 0 228.277 228.277" style="enable-background:new 0 0 228.277 228.277;" xml:space="preserve">
<g>
	<path d="M176.272,197.106c-5.193-8.01-11.37-15.089-17.139-22.664c-14.036-18.428-25.16-39.473-37.342-59.163
		c-0.29-0.469-0.694-0.71-1.118-0.781c-0.001-0.014-0.006-0.025-0.007-0.039c-0.161-2.722-0.41-5.47-0.436-8.254
		c-0.05-5.18,0.169-10.427-0.405-15.582c0.015-0.001,0.026,0.006,0.041,0.004c5.182-0.606,7.767-5.451,4.972-10.124
		c-3.871-6.472-15.153-5.901-21.402-5.114c-5.222,0.658-13.304,2.253-14.586,8.488c-0.957,4.653,3.099,8.6,7.466,8.077
		c-1.347,7.707-1.758,16.394-1.304,24.253c-0.203,0.039-0.409,0.083-0.572,0.28c-12.031,14.558-22.411,30.547-32.289,46.625
		c-7.36,11.98-21.129,30.671-21.591,45.607c-0.323,10.432,5.441,12.948,15.506,14.907c20.585,4.008,43.635,2.841,64.551,3.075
		c18.108,0.202,42.88,4.204,60.282-1.395c5.182-1.667,6.799-2.398,6.832-7.461C187.771,211.449,179.607,202.251,176.272,197.106z
		 M174.858,221.891c-2.83,1.619-16.572,0.782-19.339,0.876c-7.753,0.265-15.511,0.449-23.268,0.505
		c-14.218,0.104-28.445-0.198-42.651-0.78c-6.167-0.253-13.307,0.392-19.365-0.987c-10.538,0.91-18.155-4.17-22.899-15.145
		c-0.159-1.557-0.22-3.127-0.098-4.735c0.157-2.089,0.668-4.016,1.257-5.927c0.838-2.043,1.677-4.086,2.515-6.13
		c11.978-25.499,29.461-48.01,44.997-71.336c0.64,0.123,1.369-0.209,1.47-1.088c0.917-8.047,1.184-16.956,0.572-25.034
		c-0.016-0.21-0.119-0.38-0.249-0.521c0.286-0.184,0.398-0.612,0.047-0.797c-2.812-1.486-10.35-3.739-3.01-9.933
		c1.868-1.576,7.641-2.343,9.766-2.562c2.337-0.241,4.713-0.257,7.055-0.11l4.331,0.482c5.245,0.346,6.402,3.327,3.471,8.942
		c-0.692,0.103-1.022,0.662-1.071,1.271c-0.251,0.103-0.465,0.267-0.508,0.563c-0.813,5.52-0.525,11.191-0.523,16.76
		c0.001,2.245-0.763,6.176,0.025,8.253c0.114,0.299,0.404,0.816,0.598,1.188c-0.018,0.421,0.139,0.83,0.585,1.086
		c0.076,0.043,0.151,0.087,0.226,0.13c0.002,0.001,0.004,0.001,0.006,0.002c0.023,0.046,0.021,0.089,0.049,0.135
		c12.657,20.777,24.474,42.579,39.214,61.959C162.683,185.035,190.194,213.119,174.858,221.891z"/>
	<path d="M116.164,82.792c-2.803,1.942-4.951,3.74-8.509,4.141c-3.582,0.404-6.876-0.561-9.906-2.444
		c-0.741-0.46-1.534,0.588-0.925,1.198c5.21,5.211,16.687,5.452,20.808-1.426C118.162,83.38,117.069,82.165,116.164,82.792z"/>
	<path d="M159.307,188.965c-10.06-14.273-20.919-27.986-31.857-41.592c-0.963-1.198-2.623,0.301-2.001,1.545
		c-0.077,0.037-0.153,0.055-0.232,0.114c-11.321,8.512-27.099,2.65-39.257-1.168c0.022-0.034,0.05-0.071,0.073-0.105
		c0.363-0.553-0.468-1.196-0.917-0.708c-0.16,0.174-0.355,0.391-0.522,0.573c-0.285,0.091-0.472,0.305-0.543,0.596
		c-11.304,12.39-36.352,41.769-28.224,59.545c8.165,17.857,43.677,10.909,58.028,10.852c9.027-0.036,18.054-0.066,27.082-0.099
		c6.435-0.024,17.845,2.356,23.671-0.415c4.433-2.109,5.56-1.862,6.621-6.968C172.771,203.712,163.099,194.344,159.307,188.965z"/>
	<path d="M110.969,141.001c-5.3-0.465-10.615-0.428-15.912,0.071c-2.609,0.246-5.023,0.107-6.967,1.912
		c-0.678,0.63-0.575,1.42-0.143,1.988c-0.242,0.453-0.22,1.044,0.332,1.305c7.133,3.369,15.069,5.585,23.028,5.221
		c3.277-0.15,13.422-0.595,12.974-5.859C123.876,140.879,114.248,141.289,110.969,141.001z"/>
	<path d="M93.063,51.022c-0.865,0.378-1.591,0.887-2.279,1.422c-6.357,3.27-6.182,13.16-1.079,17.892
		c6.136,5.69,15.779,2.23,17.606-5.646C109.24,56.371,101.976,47.125,93.063,51.022z M95.771,54.94
		c0.812-0.179,1.547-0.184,2.229-0.09c-3.354,1.292-5.695,4.059-6.575,7.347C90.624,59.163,91.9,55.791,95.771,54.94z"/>
	<path d="M139.661,41.11c-2.355-8.103-11.144-15.036-19.259-12.21c-8.805-0.335-13.679,10.793-13.105,18.583
		c0.709,9.619,10.089,16.738,19.5,14.876C136.521,60.434,142.424,50.617,139.661,41.11z M132.74,53.833
		c0.543-1.286,0.957-2.693,1.036-4.354c0.352-7.297-4.529-13.649-10.997-16.188c2.021-0.177,3.99-0.071,5.931,1.041
		c2.306,1.321,4.412,3.762,5.606,6.064C136.667,44.934,135.809,50.221,132.74,53.833z"/>
	<path d="M112.402,3.111c-4.705-4.75-13.038-3.862-17.003,1.311c-0.048,0.062-0.053,0.122-0.091,0.184
		c-2.891,2.829-3.979,7.325-2.043,11.405c3.328,7.015,12.322,8.029,18.176,3.513C116.61,15.537,116.995,7.748,112.402,3.111z
		 M97.341,7.282c0.423-0.022,0.843-0.142,1.194-0.44c1.963-1.662,4.486-2.874,6.987-2.615c-2.161,0.434-4.262,1.446-5.706,2.729
		c-1.59,1.413-3.061,3.804-3.387,6.105C95.838,11.027,96.264,9.013,97.341,7.282z"/>
</g>
<g>
</g>
<g>
</g>
<g>
</g>
<g>
</g>
<g>
</g>
<g>
</g>
<g>
</g>
<g>
</g>
<g>
</g>
<g>
</g>
<g>
</g>
<g>
</g>
<g>
</g>
<g>
</g>
<g>
</g>
</svg>
