<svg height="503pt" viewBox="-3 0 503 503.5688" width="503pt" xmlns="http://www.w3.org/2000/svg"><path d="m191.875 477.328125c.660156 1.109375 1.324219 2.132813 1.980469 3.292969 15.746093 27.738281 53.378906 22.550781 53.757812 22.496094.867188.089843 1.742188.089843 2.613281 0 1.527344.214843 38.128907 5.027343 53.761719-22.496094.660157-1.160156 1.324219-2.1875 1.984375-3.296875-18.492187 5.558593-37.746094 8.167969-57.054687 7.726562-19.300781.4375-38.554688-2.167969-57.042969-7.722656zm0 0"/><path d="m374.671875 368.28125c4.960937 0 8.984375 4.019531 8.984375 8.980469v10.742187c3.347656-2.414062 6.820312-4.648437 10.410156-6.691406 9.207032-17.367188 14.714844-36.453125 16.175782-56.058594-11.867188 10.691406-27.378907 16.433594-43.347657 16.050782-3.988281-.019532-7.972656-.304688-11.921875-.863282 1.0625 4.75 1.570313 8.023438 1.652344 8.605469.699219 4.90625-2.707031 9.453125-7.613281 10.15625-.429688.058594-.859375.089844-1.292969.089844-4.460938-.007813-8.242188-3.28125-8.882812-7.695313-.082032-.554687-8.75-55.175781-36.023438-55.175781-9.730469-1.074219-19.234375 3.429687-24.570312 11.640625-6.683594 9.589844-17.632813 15.304688-29.324219 15.304688-11.6875 0-22.640625-5.714844-29.324219-15.304688-5.332031-8.210938-14.839844-12.714844-24.570312-11.640625-27.269532 0-35.9375 54.621094-36.019532 55.175781-.640625 4.414063-4.421875 7.691406-8.882812 7.699219-.433594 0-.863282-.027344-1.289063-.089844-4.90625-.703125-8.3125-5.25-7.613281-10.15625.082031-.578125.585938-3.855469 1.652344-8.605469-3.953125.558594-7.9375.84375-11.925782.863282-15.972656.382812-31.484374-5.359375-43.351562-16.054688 1.460938 19.601563 6.96875 38.683594 16.175781 56.050782 3.585938 2.042968 7.0625 4.28125 10.414063 6.695312v-10.738281c0-4.960938 4.019531-8.980469 8.980468-8.980469 4.960938 0 8.984376 4.019531 8.984376 8.980469v26.949219c0 .089843-.050782.167968-.054688.257812 4.816406 5.417969 9.164062 10.699219 12.957031 15.398438 1.71875 2.132812 3.390625 4.203124 5.0625 6.222656v-12.898438c0-4.960937 4.019531-8.980468 8.980469-8.980468s8.984375 4.019531 8.984375 8.980468v31.289063c5.519531 4.472656 11.550781 8.273437 17.964844 11.332031v-15.671875c0-4.960937 4.019531-8.984375 8.980469-8.984375 4.960937 0 8.984374 4.023438 8.984374 8.984375v22.066406c5.910157 1.492188 11.910157 2.605469 17.964844 3.328125v-16.414062c0-4.960938 4.019532-8.980469 8.980469-8.980469s8.984375 4.019531 8.984375 8.980469v17.8125c2.886719.097656 5.871094.152344 8.980469.152344 3.113281 0 6.09375-.054688 8.984375-.152344v-17.8125c0-4.960938 4.019531-8.980469 8.980468-8.980469 4.960938 0 8.984376 4.019531 8.984376 8.980469v16.414062c6.050781-.722656 12.054687-1.835937 17.964843-3.332031v-22.0625c0-4.960937 4.019531-8.984375 8.980469-8.984375s8.984375 4.023438 8.984375 8.984375v15.667969c6.414063-3.054688 12.441406-6.855469 17.964844-11.328125v-31.289063c0-4.960937 4.019531-8.980468 8.980469-8.980468 4.960937 0 8.984374 4.019531 8.984374 8.980468v12.890625c1.699219-2.054687 3.363282-4.105469 5.0625-6.214843 3.789063-4.695313 8.132813-9.96875 12.953126-15.398438 0-.089844-.050782-.167969-.050782-.257812v-26.949219c0-4.960938 4.019532-8.980469 8.980469-8.980469zm0 0"/><path d="m449.8125 256.332031c-8.089844.039063-16.175781-.507812-24.183594-1.644531 4.566406 31.078125 7.078125 76.308594-6.757812 115.144531 4.621094-1.746093 9.222656-3.382812 13.75-4.953125 28.367187-9.855468 47.113281-16.363281 49.589844-47.632812.242187-4.359375.25-6.964844.25-7.089844 0-31.332031-11.726563-47.398438-18.816407-54.265625-4.519531.257813-9.121093.441406-13.832031.441406zm0 0"/><path d="m65.214844 364.878906c4.527344 1.570313 9.128906 3.207032 13.753906 4.953125-13.84375-38.847656-11.320312-84.089843-6.753906-115.175781-12.605469 1.695312-25.351563 2.113281-38.039063 1.25-7.097656 6.882812-18.800781 22.949219-18.800781 54.257812 0 .101563 0 1.625.113281 4.246094.035157.875.078125 1.871094.140625 2.980469 2.449219 31.117187 21.203125 37.625 49.585938 47.488281zm0 0"/><path d="m91.578125 394.996094c-10.394531-5.214844-21.179687-9.609375-32.253906-13.152344-12.867188-3.820312-25.160157-9.355469-36.546875-16.464844 5.101562 18.945313 13.058594 35.324219 24.597656 43.167969 21 14.308594 50.570312 15.835937 77.667969 15.21875-2.65625-3.199219-5.425781-6.449219-8.5-9.800781-7.144531-7.738282-15.59375-14.160156-24.964844-18.96875zm0 0"/><path d="m110.253906 240.972656c-5.933594 3.96875-12.386718 7.101563-19.171875 9.308594-2.417969 14.269531-3.894531 28.683594-4.417969 43.144531.03125.097657.109376.160157.140626.257813 1.347656 4.035156 14.476562 38.316406 61.828124 27.335937 7.363282-19.722656 21.273438-42.5625 46.390626-42.5625 15.125-1.109375 29.726562 5.800781 38.457031 18.199219 4.78125 5.824219 7.175781 8.746094 15.4375 8.746094 8.265625 0 10.660156-2.921875 15.441406-8.746094 8.730469-12.398438 23.328125-19.308594 38.453125-18.199219 25.113281 0 39.023438 22.835938 46.390625 42.554688 48.710937 11.261719 61.300781-25.699219 61.832031-27.328125.027344-.097656.105469-.160156.140625-.253906-.527343-14.492188-2.007812-28.929688-4.433593-43.226563-6.777344-2.183594-13.222657-5.289063-19.15625-9.230469-1.367188-.929687-2.617188-2.109375-3.929688-3.148437v4.703125c0 4.960937-4.023438 8.980468-8.984375 8.980468s-8.980469-4.019531-8.980469-8.980468v-22.914063c-3.5-4.257812-6.972656-8.65625-10.492187-13.230469-2.4375-3.171874-4.929688-6.390624-7.472657-9.605468v.835937c0 4.960938-4.023437 8.984375-8.984374 8.984375-4.960938 0-8.980469-4.023437-8.980469-8.984375v-21.214843c-5.507813-5.480469-11.523438-10.429688-17.964844-14.773438v9.042969c0 4.960937-4.023437 8.980469-8.984375 8.980469s-8.980469-4.019532-8.980469-8.980469v-18.679688c-5.8125-2.359375-11.824219-4.199219-17.964843-5.488281v15.183594c0 4.960937-4.023438 8.984375-8.984376 8.984375-4.960937 0-8.980468-4.023438-8.980468-8.984375v-17.636719c-2.921875-.1875-5.882813-.328125-8.984375-.328125-3.101563 0-6.0625.140625-8.980469.328125v17.636719c0 4.960937-4.023438 8.984375-8.984375 8.984375s-8.980469-4.023438-8.980469-8.984375v-15.183594c-6.140625 1.289062-12.152344 3.128906-17.964844 5.488281v18.679688c0 4.960937-4.023437 8.980469-8.984374 8.980469-4.960938 0-8.980469-4.019532-8.980469-8.980469v-9.042969c-6.441407 4.34375-12.457031 9.292969-17.964844 14.773438v21.214843c0 4.960938-4.023437 8.984375-8.984375 8.984375s-8.980469-4.023437-8.980469-8.984375v-.835937c-2.546875 3.214844-5.035156 6.433594-7.476562 9.605468-3.519531 4.574219-6.992188 8.972657-10.488281 13.230469v22.914063c0 4.960937-4.023438 8.980468-8.984376 8.980468-4.960937 0-8.980468-4.019531-8.980468-8.980468v-4.703125c-1.316406 1.042969-2.5625 2.21875-3.929688 3.148437zm0 0"/><path d="m406.292969 394.984375c-9.375 4.804687-17.828125 11.222656-24.972657 18.964844-3.085937 3.359375-5.863281 6.617187-8.519531 9.816406 27.082031.617187 56.648438-.914063 77.667969-15.214844 11.546875-7.851562 19.503906-24.25 24.609375-43.195312-11.386719 7.125-23.683594 12.671875-36.558594 16.492187-11.066406 3.535156-21.84375 7.929688-32.226562 13.136719zm0 0"/><path d="m446.53125 161.683594c0-19.84375-8.042969-35.929688-17.964844-35.929688s-17.964844 16.085938-17.964844 35.929688 8.042969 35.929687 17.964844 35.929687 17.964844-16.085937 17.964844-35.929687zm0 0"/><path d="m87.234375 161.683594c0-19.84375-8.042969-35.929688-17.964844-35.929688s-17.964843 16.085938-17.964843 35.929688 8.042968 35.929687 17.964843 35.929687 17.964844-16.085937 17.964844-35.929687zm0 0"/><path d="m496.664062 43.75c-34.4375 17.980469-67.351562 38.738281-98.410156 62.070312-3.875 3.101563-9.527344 2.472657-12.628906-1.398437-3.101562-3.875-2.472656-9.527344 1.398438-12.628906 23.597656-18.136719 48.476562-34.546875 74.4375-49.097657-31.890626 4.242188-64.152344 4.960938-96.203126 2.136719 3.152344 4.46875 5.984376 9.15625 8.46875 14.027344 2.21875 4.4375.421876 9.832031-4.015624 12.050781s-9.835938.421875-12.054688-4.015625c-6.808594-12.160156-15.203125-23.359375-24.96875-33.304687-28.648438-23.878906-42.089844-33.589844-83.769531-33.589844-41.679688 0-55.121094 9.710938-83.761719 33.59375-9.765625 9.945312-18.164062 21.144531-24.972656 33.304688-2.21875 4.4375-7.613282 6.234374-12.050782 4.015624s-6.238281-7.613281-4.019531-12.050781c2.488281-4.871093 5.316407-9.558593 8.46875-14.023437-32.046875 2.820312-64.304687 2.105468-96.195312-2.136719 25.957031 14.546875 50.832031 30.953125 74.425781 49.089844 2.507812 2.007812 3.753906 5.195312 3.269531 8.371093-.484375 3.171876-2.625 5.84375-5.617187 7.011719-2.988282 1.167969-6.375.652344-8.878906-1.355469-31.0625-23.332031-63.976563-44.089843-98.414063-62.070312 7.5625 34.09375 12.3125 68.75 14.203125 103.617188-1.324219 29.550781-6.394531 58.816406-15.089844 87.089843 1.976563.222657 4.078125.472657 6.332032.746094 25.457031 3.054687 68.097656 8.1875 93.527343-9.089844 10.867188-8.789062 20.386719-19.128906 28.253907-30.683593 21.570312-28.054688 48.007812-62.203126 102.285156-68.542969.09375 0 .171875-.054688.269531-.054688l.074219.015625c11.882812-1.457031 23.894531-1.457031 35.777344 0l.078124-.015625c.097657 0 .179688.050781.269532.054688 54.273437 6.339843 80.714844 40.488281 102.285156 68.542969 7.863281 11.554687 17.382812 21.894531 28.253906 30.683593 25.410156 17.277344 68.058594 12.140625 93.527344 9.085938 2.253906-.265625 4.359375-.519531 6.332031-.742188-8.695312-28.273437-13.765625-57.539062-15.089843-87.089843 1.894531-34.867188 6.644531-69.523438 14.203124-103.617188zm-427.394531 171.828125c-20.148437 0-35.929687-23.675781-35.929687-53.894531s15.78125-53.894532 35.929687-53.894532c20.148438 0 35.929688 23.675782 35.929688 53.894532s-15.78125 53.894531-35.929688 53.894531zm143.71875-161.683594c-4.960937 0-8.980469-4.019531-8.980469-8.980469-4.960937 0-8.984374-4.023437-8.984374-8.984374 0-4.960938 4.023437-8.980469 8.984374-8.980469 4.792969-.105469 9.421876 1.757812 12.8125 5.148437 3.394532 3.390625 5.253907 8.019532 5.152344 12.816406 0 4.960938-4.023437 8.980469-8.984375 8.980469zm81.097657-8.980469c-.085938 4.96875-4.140626 8.953126-9.109376 8.953126-4.972656 0-9.023437-3.984376-9.109374-8.953126-.101563-4.796874 1.757812-9.425781 5.148437-12.816406s8.019531-5.253906 12.816406-5.148437c4.960938-.070313 9.039063 3.894531 9.109375 8.851562.070313 4.960938-3.894531 9.042969-8.855468 9.113281zm134.480468 170.664063c-20.148437 0-35.929687-23.675781-35.929687-53.894531s15.78125-53.894532 35.929687-53.894532c20.152344 0 35.929688 23.675782 35.929688 53.894532s-15.777344 53.894531-35.929688 53.894531zm0 0"/></svg>