<?xml version="1.0" encoding="iso-8859-1"?>
<!-- Generator: Adobe Illustrator 18.1.1, SVG Export Plug-In . SVG Version: 6.00 Build 0)  -->
<svg version="1.1" id="Capa_1" xmlns="http://www.w3.org/2000/svg" xmlns:xlink="http://www.w3.org/1999/xlink" x="0px" y="0px"
	 viewBox="0 0 16.283 16.283" style="enable-background:new 0 0 16.283 16.283;" xml:space="preserve">
<g>
	<g>
		<g>
			<path style="fill:#090509;" d="M6.399,11.657c0.252,0.207,0.313,0.356,0.591,0.537c0,0.248,0,0.746,0,0.746
				s0.318-0.412,0.489-0.605c0.24,0.07,1.094,0.056,1.337-0.002c0.135,0.223,0.466,0.606,0.466,0.606s0-0.514,0-0.77
				c0.13-0.072,0.601-0.471,0.566-0.534C8.324,12.158,7.36,11.968,6.399,11.657z"/>
			<path style="fill:#090509;" d="M7.705,9.192C6.552,9.758,6.226,8.867,5.49,8.703c0.077,0.551,0.761,1.294,1.305,1.329
				C7.289,10.063,7.553,9.814,7.705,9.192z"/>
			<path style="fill:#090509;" d="M8.38,9.192c1.153,0.566,1.478-0.325,2.215-0.489c-0.076,0.551-0.76,1.294-1.305,1.329
				C8.796,10.063,8.531,9.814,8.38,9.192z"/>
			<path style="fill:#090509;" d="M12.669,10.26l-0.011,0.012c0.102-0.144,0.196-0.345,0.239-0.629
				c0.078-0.274,0.307-1.195,0.043-1.544c-0.031-0.042-0.069-0.076-0.112-0.101c0.114-0.396,0.265-1.045,0.286-1.763
				c0.011-0.005,0.019-0.01,0.028-0.016l-0.027-0.043c0.001-0.089,0.003-0.178,0-0.268l0.004-0.064c0,0,0.523-5.515-4.878-5.515
				c-3.356,0-4.72,2.327-4.925,4.86H3.29v0.867C3.285,6.071,3.281,6.084,3.276,6.097C3.199,6.314,3.194,6.329,3.502,7.958
				C3.422,7.982,3.353,8.031,3.299,8.1C3.037,8.448,3.266,9.368,3.337,9.614c0.042,0.273,0.125,0.467,0.219,0.613L0,8.117
				c0,0,5.071,7.816,7.838,7.838v-1.193c0.049,0.003,0.098,0.009,0.146,0.009c0.155,0,0.308-0.014,0.461-0.034v1.218
				c2.766-0.02,7.838-7.838,7.838-7.838L12.669,10.26z M7.915,13.918c-1.118-0.265-2.266-1.456-2.472-2.657
				c-0.03-0.178,0.003-0.407-0.117-0.536c-0.087-0.095-0.237-0.077-0.349-0.14c-0.281-0.157-0.488-0.561-0.629-0.864
				c-0.107-0.229-0.266-1.2-0.303-1.297C4.156,8.347,4.276,8.48,4.44,8.505c0.396,0.089,0.364,0.427,0.536,0.54
				c-0.026-1.476-0.21-3.65,1.213-3.661c0.971-0.007,1.727,0.3,2.06,1.152c0.244-0.623,1.026-1.175,1.81-1.175
				c1.399-0.026,1.215,2.181,1.258,3.66c0.201,0.018,0.246-0.396,0.537-0.413c0.175-0.051,0.278-0.094,0.42-0.1
				c-0.044,0.48-0.137,0.856-0.303,1.212c-0.133,0.285-0.353,0.714-0.629,0.864c-0.149,0.08-0.333,0.048-0.42,0.209
				c-0.094,0.176-0.077,0.442-0.116,0.606c-0.137,0.57-0.385,0.98-0.723,1.375c-0.418,0.489-1,0.973-1.655,1.143
				C8.307,13.95,8.065,13.954,7.915,13.918z"/>
		</g>
	</g>
</g>
<g>
</g>
<g>
</g>
<g>
</g>
<g>
</g>
<g>
</g>
<g>
</g>
<g>
</g>
<g>
</g>
<g>
</g>
<g>
</g>
<g>
</g>
<g>
</g>
<g>
</g>
<g>
</g>
<g>
</g>
</svg>
