<svg id="Layer_1" enable-background="new 0 0 512 512" height="512" viewBox="0 0 512 512" width="512" xmlns="http://www.w3.org/2000/svg"><g><path d="m345.574 218.812c.766 0 1.464-.695 1.464-1.458v-26.316c-12.262-5.441-24.523-6.317-37.399-2.67v28.986c0 .208-.012.414-.016.621.248.48.756.837 1.303.837z"/><path d="m269.724 195.455c-.754.135-1.52.235-2.308.259-8.875.266-17.841-.129-26.544-1.124v22.765c0 .208-.012.414-.016.621.248.48.756.837 1.302.837h34.649c.547 0 1.054-.357 1.302-.837-.004-.207-.016-.413-.016-.621v-22.596c-2.765.29-5.555.529-8.369.696z"/><path d="m117.333 291.111c3.158-6.31 7.245-16.373 11.453-31.375 4.978-17.75 8.627-37.187 10.5-55.475-14.488 4.43-28.576 7.184-42.605 8.521 2.501 18.054 6.399 36.573 11.134 52.553 3.555 11.998 6.877 20.299 9.518 25.776z"/><path d="m209.432 187.965c-12.678-3.264-24.776-2.118-36.891 3.49-.205.095-.406.18-.611.274v25.624c0 .763.698 1.458 1.464 1.458h34.649c.547 0 1.054-.357 1.302-.837-.004-.207-.016-.413-.016-.621v-27.646c0-.589.04-1.169.103-1.742z"/><path d="m72 252.169c-2.856-12.539-5.192-25.658-6.865-38.641-15.154-.682-30.548-2.763-46.617-5.927 12.356 14.491 29.987 30.032 53.482 44.568z"/><path d="m156.471 276.675c-1.228 3.932-2.501 7.688-3.802 11.251 34.411 10.242 70.535 15.435 107.597 15.435 39.048 0 75.351-4.728 108.122-14.034-1.412-3.783-2.791-7.8-4.12-12.017-2.897-9.193-5.469-19.046-7.664-29.141-3.45 1.23-7.162 1.906-11.031 1.906h-34.649c-6.243 0-12.084-1.747-17.059-4.774-4.975 3.027-10.815 4.774-17.058 4.774h-34.649c-6.243 0-12.084-1.747-17.058-4.774-4.975 3.027-10.815 4.774-17.058 4.774h-34.649c-3.324 0-6.533-.499-9.559-1.419-2.117 9.684-4.589 19.143-7.363 28.019z"/><path d="m150.007 167.208c.082-.036 6.267-2.692 9.321-4.105 20.116-9.314 41.065-10.725 62.264-4.193 11.803 3.636 25.822 5.593 39.949 5.619.131-.006.258-.025.39-.028 13.252-.281 26.05-2.214 37.011-5.591 21.198-6.53 42.147-5.121 62.264 4.194 47.675 22.07 87.879 24.973 150.794 10.337-4.063-3.135-8.573-5.849-12.229-8.449-68.179-48.498-137.195-93.427-180.176-93.789-21.085-.202-39.137 3.322-53.673 10.405-6.778 3.303-15.887 3.303-22.665 0-14.535-7.082-32.583-10.616-53.672-10.405-42.981.363-111.998 45.292-180.177 93.79-3.033 2.157-6.066 4.313-9.11 6.455 64.049 15.841 104.302 14.739 149.709-4.24z"/><path d="m435.624 296.469c-9.457 22.683-19.639 32.975-32.222 32.975-9.39 0-16.206-6.134-20.59-11.755-37.103 11.232-78.288 16.934-122.545 16.934-41.891 0-82.718-6.148-121.528-18.259-4.346 5.978-11.489 13.105-21.606 13.105-12.705 0-22.889-10.773-32.319-34.544-34.354-16.893-63.646-38.13-84.814-60.935 19.353 56.003 49.466 103.688 88.378 139.487 47.877 44.048 105.649 67.33 167.073 67.33 61.083 0 118.59-23.025 166.305-66.585 36.426-33.255 65.215-76.939 84.748-128.12-19.893 19.475-43.167 36.25-68.901 49.524-.649.335-1.311.607-1.979.843z"/><path d="m499.089 208.167c-14.666 2.792-28.893 4.68-43.01 5.354-1.561 12.981-3.88 26.208-6.812 38.926 21.521-14.466 37.812-30.16 49.822-44.28z"/><path d="m403.413 291.507c2.764-5.455 6.284-13.896 10.039-26.294 4.891-16.145 8.776-34.599 11.095-52.348-14.172-1.311-28.493-4.074-43.297-8.602 1.899 18.51 5.616 38.202 10.673 56.075 4.242 14.994 8.35 24.978 11.49 31.169z"/></g></svg>